<svg width="17" height="16" viewBox="0 0 17 16" fill="none" xmlns="http://www.w3.org/2000/svg">
<path d="M11.9287 5.71425V7.99997C11.9287 8.30307 12.0491 8.59376 12.2634 8.80809C12.4777 9.02241 12.7684 9.14282 13.0715 9.14282H13.643M13.643 9.14282C14.2492 9.14282 14.8306 8.90201 15.2592 8.47335C15.6879 8.0447 15.9287 7.46332 15.9287 6.85711V3.42854C15.9287 3.12543 15.8083 2.83474 15.5939 2.62041C15.3796 2.40609 15.0889 2.28568 14.7858 2.28568H13.0715C12.7099 2.28533 12.3534 2.19916 12.0315 2.03425C10.9404 1.46481 9.73079 1.15948 8.5001 1.14282C7.26167 1.1559 6.04384 1.46133 4.94582 2.03425C4.62983 2.19303 4.28225 2.27895 3.92868 2.28568H2.21439C1.91129 2.28568 1.6206 2.40609 1.40627 2.62041C1.19194 2.83474 1.07153 3.12543 1.07153 3.42854V6.85711C1.07153 7.46332 1.31235 8.0447 1.741 8.47335C2.16966 8.90201 2.75104 9.14282 3.35725 9.14282M13.643 9.14282L13.2887 10.9371C13.0708 12.047 12.4741 13.0467 11.6006 13.7654C10.7272 14.484 9.63119 14.8769 8.5001 14.8769C7.36902 14.8769 6.27306 14.484 5.3996 13.7654C4.52615 13.0467 3.92945 12.047 3.71153 10.9371L3.35725 9.14282M3.35725 9.14282H3.92868C4.23178 9.14282 4.52247 9.02241 4.7368 8.80809C4.95113 8.59376 5.07153 8.30307 5.07153 7.99997V5.71425M7.92868 11.4285H9.07153" stroke="#6F32DF" stroke-width="1.5" stroke-linecap="round" stroke-linejoin="round"/>
</svg>
