<svg width="17" height="23" viewBox="0 0 17 23" fill="none" xmlns="http://www.w3.org/2000/svg">
<path d="M7.52815 1.00869C7.77524 -0.0105 9.22476 -0.0105038 9.47185 1.00868L10.9636 7.16197C11.0288 7.43099 11.2027 7.66095 11.4437 7.79708L16.4583 10.6293C17.136 11.012 17.136 11.988 16.4583 12.3707L11.4437 15.2029C11.2027 15.3391 11.0288 15.569 10.9636 15.838L9.47185 21.9913C9.22476 23.0105 7.77524 23.0105 7.52815 21.9913L6.03638 15.838C5.97116 15.569 5.79734 15.3391 5.5563 15.2029L0.541682 12.3707C-0.135953 11.988 -0.135953 11.012 0.541682 10.6293L5.5563 7.79708C5.79734 7.66095 5.97116 7.43099 6.03638 7.16197L7.52815 1.00869Z" fill="white" fill-opacity="0.2"/>
</svg>
