<svg width="112" height="62" viewBox="0 0 112 62" fill="none" xmlns="http://www.w3.org/2000/svg">
<ellipse cx="56" cy="29.5" rx="56" ry="29.5" fill="#6F32DF"/>
<path d="M17.4434 33.7399V30.227H22.602C23.2772 30.227 23.8891 30.0898 24.4376 29.8156C24.9862 29.5413 25.4187 29.151 25.7352 28.6446C26.0517 28.1171 26.2099 27.4842 26.2099 26.7457C26.2099 26.0284 26.0517 25.406 25.7352 24.8785C25.4187 24.351 24.9862 23.9502 24.4376 23.6759C23.8891 23.4016 23.2772 23.2644 22.602 23.2644H17.4434V19.7515H23.0451C24.4587 19.7515 25.7246 20.0364 26.8429 20.606C27.9822 21.1757 28.8789 21.988 29.5329 23.0429C30.187 24.0767 30.514 25.311 30.514 26.7457C30.514 28.1804 30.187 29.4252 29.5329 30.4802C28.8789 31.514 27.9822 32.3157 26.8429 32.8854C25.7246 33.4551 24.4587 33.7399 23.0451 33.7399H17.4434ZM14.2786 42V19.7515H18.5828V42H14.2786ZM39.0194 42.3165C37.6269 42.3165 36.3715 41.9684 35.2533 41.2721C34.1351 40.5758 33.2595 39.6264 32.6265 38.4238C31.9936 37.2212 31.6771 35.8709 31.6771 34.3729C31.6771 32.8538 31.9936 31.4929 32.6265 30.2903C33.2595 29.0877 34.1351 28.1382 35.2533 27.442C36.3715 26.7457 37.6269 26.3976 39.0194 26.3976C40.1165 26.3976 41.0976 26.6191 41.9626 27.0622C42.8277 27.5053 43.5134 28.1277 44.0198 28.9294C44.5472 29.7101 44.832 30.5962 44.8742 31.5878V37.0946C44.832 38.1073 44.5472 39.004 44.0198 39.7846C43.5134 40.5653 42.8277 41.1877 41.9626 41.6519C41.0976 42.0949 40.1165 42.3165 39.0194 42.3165ZM39.7789 38.4871C40.9394 38.4871 41.8782 38.1073 42.5956 37.3478C43.3129 36.5671 43.6716 35.5649 43.6716 34.3412C43.6716 33.5395 43.5028 32.8327 43.1653 32.2208C42.8488 31.5878 42.3952 31.1026 41.8044 30.765C41.2347 30.4063 40.5596 30.227 39.7789 30.227C39.0194 30.227 38.3442 30.4063 37.7535 30.765C37.1838 31.1026 36.7302 31.5878 36.3926 32.2208C36.0761 32.8327 35.9179 33.5395 35.9179 34.3412C35.9179 35.1641 36.0761 35.892 36.3926 36.5249C36.7302 37.1368 37.1838 37.622 37.7535 37.9807C38.3442 38.3183 39.0194 38.4871 39.7789 38.4871ZM43.4501 42V37.8858L44.1147 34.1513L43.4501 30.4802V26.7141H47.5643V42H43.4501ZM55.3146 42L49.5863 26.7141H53.7638L57.4983 37.8225L56.2324 37.8541L60.0618 26.7141H63.0683L66.8977 37.8541L65.6318 37.8225L69.3662 26.7141H73.5438L67.8471 42H64.8406L60.9796 31.4296H62.1505L58.2895 42H55.3146ZM75.5551 42V26.7141H79.701V42H75.5551ZM79.701 33.55L78.087 32.474C78.2769 30.5962 78.8254 29.1193 79.7327 28.0433C80.6399 26.9462 81.948 26.3976 83.657 26.3976C84.3955 26.3976 85.0601 26.5242 85.6508 26.7774C86.2416 27.0094 86.7796 27.3998 87.2649 27.9483L84.6697 30.9232C84.4377 30.6701 84.1528 30.4802 83.8152 30.3536C83.4988 30.227 83.1295 30.1637 82.7076 30.1637C81.8214 30.1637 81.0935 30.4485 80.5239 31.0182C79.9753 31.5667 79.701 32.4107 79.701 33.55ZM93.6347 42.3481C92.7697 42.3481 91.9152 42.2321 91.0713 42C90.2484 41.7679 89.4889 41.4514 88.7926 41.0506C88.0964 40.6286 87.4951 40.1222 86.9887 39.5315L89.4572 37.0313C89.9847 37.622 90.5965 38.0651 91.2928 38.3605C91.9891 38.6559 92.7592 38.8036 93.6031 38.8036C94.2783 38.8036 94.7846 38.7086 95.1222 38.5187C95.4809 38.3288 95.6602 38.044 95.6602 37.6642C95.6602 37.2423 95.4703 36.9152 95.0905 36.6832C94.7319 36.4511 94.2572 36.2612 93.6664 36.1135C93.0756 35.9447 92.4532 35.7654 91.7992 35.5755C91.1662 35.3645 90.5543 35.1008 89.9636 34.7843C89.3728 34.4467 88.8876 33.9931 88.5078 33.4234C88.1491 32.8327 87.9698 32.0731 87.9698 31.1448C87.9698 30.1742 88.2019 29.3303 88.666 28.6129C89.1513 27.8956 89.837 27.3365 90.7231 26.9356C91.6093 26.5347 92.6537 26.3343 93.8563 26.3343C95.1222 26.3343 96.2615 26.5558 97.2743 26.9989C98.3081 27.442 99.1626 28.1066 99.8377 28.9927L97.3375 31.4929C96.8734 30.9232 96.3459 30.5118 95.7552 30.2586C95.1855 30.0054 94.5631 29.8789 93.8879 29.8789C93.2761 29.8789 92.8013 29.9738 92.4638 30.1637C92.1473 30.3536 91.9891 30.6173 91.9891 30.9549C91.9891 31.3347 92.1684 31.63 92.5271 31.841C92.9068 32.052 93.3921 32.2419 93.9829 32.4107C94.5736 32.5584 95.1855 32.7377 95.8184 32.9487C96.4725 33.1386 97.0844 33.4129 97.654 33.7715C98.2448 34.1302 98.7195 34.6049 99.0782 35.1957C99.458 35.7865 99.6478 36.546 99.6478 37.4744C99.6478 38.9724 99.1098 40.1644 98.0338 41.0506C96.9578 41.9156 95.4914 42.3481 93.6347 42.3481Z" fill="white"/>
<path d="M77.5 41C78.1667 44.5 76.3 51.7 63.5 52.5C50.7 53.3 38.8333 58.6667 36 59.5" stroke="white" stroke-width="4"/>
</svg>
